<svg width="130" height="50" viewBox="0 0 130 50" fill="none" xmlns="http://www.w3.org/2000/svg">
<rect width="46" height="50" fill="#370401"/>
<path fill-rule="evenodd" clip-rule="evenodd" d="M23 40C30.1797 40 36 34.1797 36 27C36 19.8203 30.1797 14 23 14C15.8203 14 10 19.8203 10 27C10 34.1797 15.8203 40 23 40ZM35 27L32.0581 24.3032L34 22.5L27 16L25.0129 17.8452L23 16L20.4839 18.3065L18 16L11 22.5L13.4387 24.7645L11 27L13.9419 29.6968L12 31.5L19 38L20.9871 36.1548L23 38L26.0581 35.1968L28 37L35 30.5L33.1032 28.7387L35 27Z" fill="#FF540C"/>
<path d="M22.824 20.088C24.216 20.088 25.408 20.56 26.4 21.504L25.488 22.728C25.04 22.392 24.608 22.144 24.192 21.984C23.776 21.808 23.336 21.72 22.872 21.72C22.312 21.72 21.864 21.88 21.528 22.2C21.208 22.504 21.048 22.928 21.048 23.472C21.048 24 21.208 24.416 21.528 24.72C21.848 25.024 22.456 25.336 23.352 25.656C24.504 26.072 25.352 26.568 25.896 27.144C26.44 27.72 26.712 28.504 26.712 29.496C26.712 30.696 26.304 31.632 25.488 32.304C24.688 32.96 23.688 33.288 22.488 33.288C20.888 33.288 19.552 32.736 18.48 31.632L19.584 30.456C20.48 31.24 21.432 31.632 22.44 31.632C23.08 31.632 23.592 31.456 23.976 31.104C24.36 30.752 24.552 30.256 24.552 29.616C24.552 29.184 24.48 28.832 24.336 28.56C24.192 28.288 23.944 28.04 23.592 27.816C23.24 27.592 22.728 27.36 22.056 27.12C20.936 26.704 20.136 26.216 19.656 25.656C19.176 25.08 18.936 24.376 18.936 23.544C18.936 22.904 19.096 22.32 19.416 21.792C19.752 21.264 20.216 20.848 20.808 20.544C21.4 20.24 22.072 20.088 22.824 20.088Z" fill="#FF540C"/>
<path d="M44.164 19.7C44.6773 19.7 45.13 19.7933 45.522 19.98C45.9233 20.1573 46.292 20.4327 46.628 20.806L45.956 21.534C45.6667 21.254 45.382 21.0533 45.102 20.932C44.822 20.8013 44.514 20.736 44.178 20.736C43.7767 20.736 43.45 20.8667 43.198 21.128C42.9553 21.38 42.834 21.716 42.834 22.136C42.834 22.5467 42.9507 22.8827 43.184 23.144C43.4267 23.4053 43.8793 23.662 44.542 23.914C45.3073 24.2033 45.886 24.5627 46.278 24.992C46.67 25.4213 46.866 26.0327 46.866 26.826C46.866 27.3393 46.7447 27.8153 46.502 28.254C46.2687 28.6833 45.9327 29.0287 45.494 29.29C45.0553 29.542 44.5467 29.668 43.968 29.668C43.3893 29.668 42.876 29.5607 42.428 29.346C41.98 29.1313 41.574 28.8233 41.21 28.422L41.896 27.694C42.2227 27.9927 42.5447 28.2213 42.862 28.38C43.1887 28.5387 43.548 28.618 43.94 28.618C44.4253 28.618 44.8127 28.4593 45.102 28.142C45.3913 27.8247 45.536 27.3953 45.536 26.854C45.536 26.3873 45.4193 26.014 45.186 25.734C44.9527 25.454 44.5187 25.1973 43.884 24.964C43.072 24.656 42.4747 24.2827 42.092 23.844C41.7187 23.4053 41.532 22.8547 41.532 22.192C41.532 21.7347 41.644 21.3147 41.868 20.932C42.092 20.5493 42.4047 20.2507 42.806 20.036C43.2073 19.812 43.66 19.7 44.164 19.7ZM54.5407 21.968C55.0354 21.968 55.4321 22.164 55.7307 22.556C56.0294 22.9387 56.1787 23.4473 56.1787 24.082V29.5H54.9747V24.236C54.9747 23.7693 54.9094 23.4333 54.7787 23.228C54.6574 23.0227 54.4754 22.92 54.2327 22.92C53.7381 22.92 53.2807 23.3587 52.8607 24.236V29.5H51.6567V24.236C51.6567 23.3587 51.4094 22.92 50.9147 22.92C50.6534 22.92 50.4014 23.0367 50.1587 23.27C49.9254 23.5033 49.7154 23.8253 49.5287 24.236V29.5H48.3247V22.122H49.3887L49.4727 23.186C49.9394 22.374 50.5227 21.968 51.2227 21.968C51.5961 21.968 51.9087 22.0847 52.1607 22.318C52.4221 22.542 52.6087 22.864 52.7207 23.284C53.2247 22.4067 53.8314 21.968 54.5407 21.968ZM62.4245 27.932C62.4245 28.1933 62.4618 28.3893 62.5365 28.52C62.6112 28.6413 62.7325 28.7393 62.9005 28.814L62.6345 29.668C62.2892 29.612 62.0138 29.5047 61.8085 29.346C61.6125 29.178 61.4725 28.9307 61.3885 28.604C60.9872 29.3133 60.3992 29.668 59.6245 29.668C59.0178 29.668 58.5325 29.4673 58.1685 29.066C57.8138 28.6553 57.6365 28.114 57.6365 27.442C57.6365 26.658 57.8792 26.0607 58.3645 25.65C58.8498 25.23 59.5545 25.02 60.4785 25.02H61.2065V24.348C61.2065 23.8627 61.1085 23.508 60.9125 23.284C60.7258 23.06 60.4318 22.948 60.0305 22.948C59.5545 22.948 58.9992 23.074 58.3645 23.326L58.0565 22.458C58.8125 22.1313 59.5218 21.968 60.1845 21.968C60.9405 21.968 61.5005 22.1733 61.8645 22.584C62.2378 22.9853 62.4245 23.5547 62.4245 24.292V27.932ZM59.8765 28.744C60.4552 28.744 60.8985 28.352 61.2065 27.568V25.846H60.6185C60.0305 25.846 59.5965 25.972 59.3165 26.224C59.0458 26.476 58.9105 26.8633 58.9105 27.386C58.9105 27.834 58.9945 28.1747 59.1625 28.408C59.3305 28.632 59.5685 28.744 59.8765 28.744ZM67.3129 21.968C67.5182 21.968 67.7049 21.996 67.8729 22.052L67.6629 23.242C67.4762 23.1953 67.3082 23.172 67.1589 23.172C66.7949 23.172 66.4962 23.3353 66.2629 23.662C66.0296 23.9887 65.8476 24.488 65.7169 25.16V29.5H64.4849V22.122H65.5489L65.6469 23.494C65.9922 22.4767 66.5476 21.968 67.3129 21.968ZM72.2723 29.164C71.8523 29.5 71.3809 29.668 70.8583 29.668C70.3076 29.668 69.8783 29.5047 69.5703 29.178C69.2716 28.8513 69.1223 28.4127 69.1223 27.862V23.088H68.1283V22.122H69.1223V20.456L70.3543 20.302V22.122H71.7823L71.6563 23.088H70.3543V27.876C70.3543 28.3893 70.5736 28.646 71.0123 28.646C71.1616 28.646 71.2923 28.6273 71.4043 28.59C71.5163 28.5527 71.6469 28.4873 71.7963 28.394L72.2723 29.164ZM78.3984 19.7C78.9117 19.7 79.3644 19.7933 79.7564 19.98C80.1577 20.1573 80.5264 20.4327 80.8624 20.806L80.1904 21.534C79.901 21.254 79.6164 21.0533 79.3364 20.932C79.0564 20.8013 78.7484 20.736 78.4124 20.736C78.011 20.736 77.6844 20.8667 77.4324 21.128C77.1897 21.38 77.0684 21.716 77.0684 22.136C77.0684 22.5467 77.185 22.8827 77.4184 23.144C77.661 23.4053 78.1137 23.662 78.7764 23.914C79.5417 24.2033 80.1204 24.5627 80.5124 24.992C80.9044 25.4213 81.1004 26.0327 81.1004 26.826C81.1004 27.3393 80.979 27.8153 80.7364 28.254C80.503 28.6833 80.167 29.0287 79.7284 29.29C79.2897 29.542 78.781 29.668 78.2024 29.668C77.6237 29.668 77.1104 29.5607 76.6624 29.346C76.2144 29.1313 75.8084 28.8233 75.4444 28.422L76.1304 27.694C76.457 27.9927 76.779 28.2213 77.0964 28.38C77.423 28.5387 77.7824 28.618 78.1744 28.618C78.6597 28.618 79.047 28.4593 79.3364 28.142C79.6257 27.8247 79.7704 27.3953 79.7704 26.854C79.7704 26.3873 79.6537 26.014 79.4204 25.734C79.187 25.454 78.753 25.1973 78.1184 24.964C77.3064 24.656 76.709 24.2827 76.3264 23.844C75.953 23.4053 75.7664 22.8547 75.7664 22.192C75.7664 21.7347 75.8784 21.3147 76.1024 20.932C76.3264 20.5493 76.639 20.2507 77.0404 20.036C77.4417 19.812 77.8944 19.7 78.3984 19.7ZM85.5691 21.968C86.1011 21.968 86.5258 22.1593 86.8431 22.542C87.1604 22.9247 87.3191 23.438 87.3191 24.082V29.5H86.0871V24.25C86.0871 23.774 86.0171 23.438 85.8771 23.242C85.7464 23.0367 85.5458 22.934 85.2751 22.934C84.7431 22.934 84.2484 23.3913 83.7911 24.306V29.5H82.5591V19.168L83.7911 19.042V23.158C84.0244 22.766 84.2764 22.472 84.5471 22.276C84.8271 22.0707 85.1678 21.968 85.5691 21.968ZM91.693 21.968C92.5703 21.968 93.247 22.2947 93.723 22.948C94.2083 23.592 94.451 24.544 94.451 25.804C94.451 26.9893 94.2037 27.932 93.709 28.632C93.2237 29.3227 92.547 29.668 91.679 29.668C90.811 29.668 90.1343 29.3273 89.649 28.646C89.1637 27.9647 88.921 27.022 88.921 25.818C88.921 24.5767 89.1637 23.6247 89.649 22.962C90.1343 22.2993 90.8157 21.968 91.693 21.968ZM91.693 22.962C91.1983 22.962 90.8297 23.186 90.587 23.634C90.3443 24.0727 90.223 24.8007 90.223 25.818C90.223 26.826 90.3443 27.554 90.587 28.002C90.8297 28.45 91.1937 28.674 91.679 28.674C92.1737 28.674 92.5423 28.45 92.785 28.002C93.0277 27.554 93.149 26.8213 93.149 25.804C93.149 24.796 93.0277 24.0727 92.785 23.634C92.5423 23.186 92.1783 22.962 91.693 22.962ZM99.0899 21.968C99.8086 21.968 100.355 22.2993 100.728 22.962C101.101 23.6153 101.288 24.5627 101.288 25.804C101.288 27.008 101.083 27.9553 100.672 28.646C100.261 29.3273 99.6733 29.668 98.9079 29.668C98.2733 29.668 97.7506 29.3973 97.3399 28.856V32.314L96.1079 32.468V22.122H97.1859L97.2559 23.102C97.7226 22.346 98.3339 21.968 99.0899 21.968ZM98.6419 28.66C99.0806 28.66 99.4119 28.436 99.6359 27.988C99.8693 27.5307 99.9859 26.8027 99.9859 25.804C99.9859 24.7867 99.8879 24.0587 99.6919 23.62C99.4959 23.172 99.1879 22.948 98.7679 22.948C98.2359 22.948 97.7599 23.3073 97.3399 24.026V27.806C97.6946 28.3753 98.1286 28.66 98.6419 28.66ZM105.926 21.968C106.645 21.968 107.191 22.2993 107.564 22.962C107.937 23.6153 108.124 24.5627 108.124 25.804C108.124 27.008 107.919 27.9553 107.508 28.646C107.097 29.3273 106.509 29.668 105.744 29.668C105.109 29.668 104.587 29.3973 104.176 28.856V32.314L102.944 32.468V22.122H104.022L104.092 23.102C104.559 22.346 105.17 21.968 105.926 21.968ZM105.478 28.66C105.917 28.66 106.248 28.436 106.472 27.988C106.705 27.5307 106.822 26.8027 106.822 25.804C106.822 24.7867 106.724 24.0587 106.528 23.62C106.332 23.172 106.024 22.948 105.604 22.948C105.072 22.948 104.596 23.3073 104.176 24.026V27.806C104.531 28.3753 104.965 28.66 105.478 28.66ZM114.554 25.594C114.554 25.7993 114.544 26.014 114.526 26.238H110.662C110.699 27.1247 110.844 27.75 111.096 28.114C111.357 28.478 111.726 28.66 112.202 28.66C112.51 28.66 112.785 28.6133 113.028 28.52C113.27 28.4173 113.522 28.2587 113.784 28.044L114.33 28.786C113.714 29.374 112.99 29.668 112.16 29.668C111.282 29.668 110.601 29.346 110.116 28.702C109.63 28.0487 109.388 27.1107 109.388 25.888C109.388 24.6653 109.616 23.7087 110.074 23.018C110.54 22.318 111.194 21.968 112.034 21.968C112.846 21.968 113.466 22.276 113.896 22.892C114.334 23.4987 114.554 24.3993 114.554 25.594ZM113.364 25.23C113.364 24.4273 113.256 23.844 113.042 23.48C112.827 23.116 112.491 22.934 112.034 22.934C111.623 22.934 111.301 23.1207 111.068 23.494C110.834 23.858 110.699 24.4693 110.662 25.328H113.364V25.23ZM118.965 21.968C119.171 21.968 119.357 21.996 119.525 22.052L119.315 23.242C119.129 23.1953 118.961 23.172 118.811 23.172C118.447 23.172 118.149 23.3353 117.915 23.662C117.682 23.9887 117.5 24.488 117.369 25.16V29.5H116.137V22.122H117.201L117.299 23.494C117.645 22.4767 118.2 21.968 118.965 21.968Z" fill="white"/>
</svg>
