<svg width="186" height="50" viewBox="0 0 186 50" fill="none" xmlns="http://www.w3.org/2000/svg">
<rect width="46" height="50" />
<path fill-rule="evenodd" clip-rule="evenodd" d="M23 40C30.1797 40 36 34.1797 36 27C36 19.8203 30.1797 14 23 14C15.8203 14 10 19.8203 10 27C10 34.1797 15.8203 40 23 40ZM35 27L32.0581 24.3032L34 22.5L27 16L25.0129 17.8452L23 16L20.4839 18.3065L18 16L11 22.5L13.4387 24.7645L11 27L13.9419 29.6968L12 31.5L19 38L20.9871 36.1548L23 38L26.0581 35.1968L28 37L35 30.5L33.1032 28.7387L35 27Z" fill="#FF540C"/>
<path d="M22.824 20.088C24.216 20.088 25.408 20.56 26.4 21.504L25.488 22.728C25.04 22.392 24.608 22.144 24.192 21.984C23.776 21.808 23.336 21.72 22.872 21.72C22.312 21.72 21.864 21.88 21.528 22.2C21.208 22.504 21.048 22.928 21.048 23.472C21.048 24 21.208 24.416 21.528 24.72C21.848 25.024 22.456 25.336 23.352 25.656C24.504 26.072 25.352 26.568 25.896 27.144C26.44 27.72 26.712 28.504 26.712 29.496C26.712 30.696 26.304 31.632 25.488 32.304C24.688 32.96 23.688 33.288 22.488 33.288C20.888 33.288 19.552 32.736 18.48 31.632L19.584 30.456C20.48 31.24 21.432 31.632 22.44 31.632C23.08 31.632 23.592 31.456 23.976 31.104C24.36 30.752 24.552 30.256 24.552 29.616C24.552 29.184 24.48 28.832 24.336 28.56C24.192 28.288 23.944 28.04 23.592 27.816C23.24 27.592 22.728 27.36 22.056 27.12C20.936 26.704 20.136 26.216 19.656 25.656C19.176 25.08 18.936 24.376 18.936 23.544C18.936 22.904 19.096 22.32 19.416 21.792C19.752 21.264 20.216 20.848 20.808 20.544C21.4 20.24 22.072 20.088 22.824 20.088Z" fill="#FF540C"/>
<path d="M46.424 16.7C47.304 16.7 48.08 16.86 48.752 17.18C49.44 17.484 50.072 17.956 50.648 18.596L49.496 19.844C49 19.364 48.512 19.02 48.032 18.812C47.552 18.588 47.024 18.476 46.448 18.476C45.76 18.476 45.2 18.7 44.768 19.148C44.352 19.58 44.144 20.156 44.144 20.876C44.144 21.58 44.344 22.156 44.744 22.604C45.16 23.052 45.936 23.492 47.072 23.924C48.384 24.42 49.376 25.036 50.048 25.772C50.72 26.508 51.056 27.556 51.056 28.916C51.056 29.796 50.848 30.612 50.432 31.364C50.032 32.1 49.456 32.692 48.704 33.14C47.952 33.572 47.08 33.788 46.088 33.788C45.096 33.788 44.216 33.604 43.448 33.236C42.68 32.868 41.984 32.34 41.36 31.652L42.536 30.404C43.096 30.916 43.648 31.308 44.192 31.58C44.752 31.852 45.368 31.988 46.04 31.988C46.872 31.988 47.536 31.716 48.032 31.172C48.528 30.628 48.776 29.892 48.776 28.964C48.776 28.164 48.576 27.524 48.176 27.044C47.776 26.564 47.032 26.124 45.944 25.724C44.552 25.196 43.528 24.556 42.872 23.804C42.232 23.052 41.912 22.108 41.912 20.972C41.912 20.188 42.104 19.468 42.488 18.812C42.872 18.156 43.408 17.644 44.096 17.276C44.784 16.892 45.56 16.7 46.424 16.7ZM64.2127 20.588C65.0607 20.588 65.7407 20.924 66.2527 21.596C66.7647 22.252 67.0207 23.124 67.0207 24.212V33.5H64.9567V24.476C64.9567 23.676 64.8447 23.1 64.6207 22.748C64.4127 22.396 64.1007 22.22 63.6847 22.22C62.8367 22.22 62.0527 22.972 61.3327 24.476V33.5H59.2687V24.476C59.2687 22.972 58.8447 22.22 57.9967 22.22C57.5487 22.22 57.1167 22.42 56.7007 22.82C56.3007 23.22 55.9407 23.772 55.6207 24.476V33.5H53.5567V20.852H55.3807L55.5247 22.676C56.3247 21.284 57.3247 20.588 58.5247 20.588C59.1647 20.588 59.7007 20.788 60.1327 21.188C60.5807 21.572 60.9007 22.124 61.0927 22.844C61.9567 21.34 62.9967 20.588 64.2127 20.588ZM77.7277 30.812C77.7277 31.26 77.7917 31.596 77.9197 31.82C78.0477 32.028 78.2557 32.196 78.5437 32.324L78.0877 33.788C77.4957 33.692 77.0237 33.508 76.6717 33.236C76.3357 32.948 76.0957 32.524 75.9517 31.964C75.2637 33.18 74.2557 33.788 72.9277 33.788C71.8877 33.788 71.0557 33.444 70.4317 32.756C69.8237 32.052 69.5197 31.124 69.5197 29.972C69.5197 28.628 69.9357 27.604 70.7677 26.9C71.5997 26.18 72.8077 25.82 74.3917 25.82H75.6397V24.668C75.6397 23.836 75.4717 23.228 75.1357 22.844C74.8157 22.46 74.3117 22.268 73.6237 22.268C72.8077 22.268 71.8557 22.484 70.7677 22.916L70.2397 21.428C71.5357 20.868 72.7517 20.588 73.8877 20.588C75.1837 20.588 76.1437 20.94 76.7677 21.644C77.4077 22.332 77.7277 23.308 77.7277 24.572V30.812ZM73.3597 32.204C74.3517 32.204 75.1117 31.532 75.6397 30.188V27.236H74.6317C73.6237 27.236 72.8797 27.452 72.3997 27.884C71.9357 28.316 71.7037 28.98 71.7037 29.876C71.7037 30.644 71.8477 31.228 72.1357 31.628C72.4237 32.012 72.8317 32.204 73.3597 32.204ZM86.1078 20.588C86.4598 20.588 86.7798 20.636 87.0678 20.732L86.7078 22.772C86.3878 22.692 86.0998 22.652 85.8438 22.652C85.2198 22.652 84.7078 22.932 84.3078 23.492C83.9078 24.052 83.5958 24.908 83.3718 26.06V33.5H81.2598V20.852H83.0838L83.2518 23.204C83.8438 21.46 84.7958 20.588 86.1078 20.588ZM94.6096 32.924C93.8896 33.5 93.0816 33.788 92.1856 33.788C91.2416 33.788 90.5056 33.508 89.9776 32.948C89.4656 32.388 89.2096 31.636 89.2096 30.692V22.508H87.5056V20.852H89.2096V17.996L91.3216 17.732V20.852H93.7696L93.5536 22.508H91.3216V30.716C91.3216 31.596 91.6976 32.036 92.4496 32.036C92.7056 32.036 92.9296 32.004 93.1216 31.94C93.3136 31.876 93.5376 31.764 93.7936 31.604L94.6096 32.924ZM105.112 16.7C105.992 16.7 106.768 16.86 107.44 17.18C108.128 17.484 108.76 17.956 109.336 18.596L108.184 19.844C107.688 19.364 107.2 19.02 106.72 18.812C106.24 18.588 105.712 18.476 105.136 18.476C104.448 18.476 103.888 18.7 103.456 19.148C103.04 19.58 102.832 20.156 102.832 20.876C102.832 21.58 103.032 22.156 103.432 22.604C103.848 23.052 104.624 23.492 105.76 23.924C107.072 24.42 108.064 25.036 108.736 25.772C109.408 26.508 109.744 27.556 109.744 28.916C109.744 29.796 109.536 30.612 109.12 31.364C108.72 32.1 108.144 32.692 107.392 33.14C106.64 33.572 105.768 33.788 104.776 33.788C103.784 33.788 102.904 33.604 102.136 33.236C101.368 32.868 100.672 32.34 100.048 31.652L101.224 30.404C101.784 30.916 102.336 31.308 102.88 31.58C103.44 31.852 104.056 31.988 104.728 31.988C105.56 31.988 106.224 31.716 106.72 31.172C107.216 30.628 107.464 29.892 107.464 28.964C107.464 28.164 107.264 27.524 106.864 27.044C106.464 26.564 105.72 26.124 104.632 25.724C103.24 25.196 102.216 24.556 101.56 23.804C100.92 23.052 100.6 22.108 100.6 20.972C100.6 20.188 100.792 19.468 101.176 18.812C101.56 18.156 102.096 17.644 102.784 17.276C103.472 16.892 104.248 16.7 105.112 16.7ZM117.404 20.588C118.316 20.588 119.044 20.916 119.588 21.572C120.132 22.228 120.404 23.108 120.404 24.212V33.5H118.292V24.5C118.292 23.684 118.172 23.108 117.932 22.772C117.708 22.42 117.364 22.244 116.9 22.244C115.988 22.244 115.14 23.028 114.356 24.596V33.5H112.244V15.788L114.356 15.572V22.628C114.756 21.956 115.188 21.452 115.652 21.116C116.132 20.764 116.716 20.588 117.404 20.588ZM127.902 20.588C129.406 20.588 130.566 21.148 131.382 22.268C132.214 23.372 132.63 25.004 132.63 27.164C132.63 29.196 132.206 30.812 131.358 32.012C130.526 33.196 129.366 33.788 127.878 33.788C126.39 33.788 125.23 33.204 124.398 32.036C123.566 30.868 123.15 29.252 123.15 27.188C123.15 25.06 123.566 23.428 124.398 22.292C125.23 21.156 126.398 20.588 127.902 20.588ZM127.902 22.292C127.054 22.292 126.422 22.676 126.006 23.444C125.59 24.196 125.382 25.444 125.382 27.188C125.382 28.916 125.59 30.164 126.006 30.932C126.422 31.7 127.046 32.084 127.878 32.084C128.726 32.084 129.358 31.7 129.774 30.932C130.19 30.164 130.398 28.908 130.398 27.164C130.398 25.436 130.19 24.196 129.774 23.444C129.358 22.676 128.734 22.292 127.902 22.292ZM140.583 20.588C141.815 20.588 142.751 21.156 143.391 22.292C144.031 23.412 144.351 25.036 144.351 27.164C144.351 29.228 143.999 30.852 143.295 32.036C142.591 33.204 141.583 33.788 140.271 33.788C139.183 33.788 138.287 33.324 137.583 32.396V38.324L135.471 38.588V20.852H137.319L137.439 22.532C138.239 21.236 139.287 20.588 140.583 20.588ZM139.815 32.06C140.567 32.06 141.135 31.676 141.519 30.908C141.919 30.124 142.119 28.876 142.119 27.164C142.119 25.42 141.951 24.172 141.615 23.42C141.279 22.652 140.751 22.268 140.031 22.268C139.119 22.268 138.303 22.884 137.583 24.116V30.596C138.191 31.572 138.935 32.06 139.815 32.06ZM152.302 20.588C153.534 20.588 154.47 21.156 155.11 22.292C155.75 23.412 156.07 25.036 156.07 27.164C156.07 29.228 155.718 30.852 155.014 32.036C154.31 33.204 153.302 33.788 151.99 33.788C150.902 33.788 150.006 33.324 149.302 32.396V38.324L147.19 38.588V20.852H149.038L149.158 22.532C149.958 21.236 151.006 20.588 152.302 20.588ZM151.534 32.06C152.286 32.06 152.854 31.676 153.238 30.908C153.638 30.124 153.838 28.876 153.838 27.164C153.838 25.42 153.67 24.172 153.334 23.42C152.998 22.652 152.47 22.268 151.75 22.268C150.838 22.268 150.022 22.884 149.302 24.116V30.596C149.91 31.572 150.654 32.06 151.534 32.06ZM167.092 26.804C167.092 27.156 167.076 27.524 167.044 27.908H160.42C160.484 29.428 160.732 30.5 161.164 31.124C161.612 31.748 162.244 32.06 163.06 32.06C163.588 32.06 164.06 31.98 164.476 31.82C164.892 31.644 165.324 31.372 165.772 31.004L166.708 32.276C165.652 33.284 164.412 33.788 162.988 33.788C161.484 33.788 160.316 33.236 159.484 32.132C158.652 31.012 158.236 29.404 158.236 27.308C158.236 25.212 158.628 23.572 159.412 22.388C160.212 21.188 161.332 20.588 162.772 20.588C164.164 20.588 165.228 21.116 165.964 22.172C166.716 23.212 167.092 24.756 167.092 26.804ZM165.052 26.18C165.052 24.804 164.868 23.804 164.5 23.18C164.132 22.556 163.556 22.244 162.772 22.244C162.068 22.244 161.516 22.564 161.116 23.204C160.716 23.828 160.484 24.876 160.42 26.348H165.052V26.18ZM174.655 20.588C175.007 20.588 175.327 20.636 175.615 20.732L175.255 22.772C174.935 22.692 174.647 22.652 174.391 22.652C173.767 22.652 173.255 22.932 172.855 23.492C172.455 24.052 172.143 24.908 171.919 26.06V33.5H169.807V20.852H171.631L171.799 23.204C172.391 21.46 173.343 20.588 174.655 20.588Z" fill="#FF540C"/>
</svg>
