<svg width="24" height="28" viewBox="0 0 24 28" fill="none" xmlns="http://www.w3.org/2000/svg">
<path d="M15.748 11.4982L15.7454 11.5278M15.748 11.4982L15.375 12.0386C15.4607 12.0972 15.5687 12.1402 15.6923 12.1508M15.748 11.4982L15.7302 11.5198M15.748 11.4982L15.7454 11.5278M15.7454 11.5278L15.7866 11.5493L15.8111 11.5911L15.8127 11.5938L16.0879 12.0621C15.9766 12.1276 15.8385 12.1632 15.6923 12.1508M15.7454 11.5278L15.7866 11.5493L15.375 11.953M15.6923 12.1508C15.6923 12.1508 15.6923 12.1508 15.6923 12.1508L15.6923 12.1508ZM15.375 11.953L15.6696 11.5938L15.6711 11.592L15.7302 11.5198M15.375 11.953V11.9291V11.953ZM15.7302 11.5198L15.7246 11.5169L15.7302 11.5198ZM21 13L20.9967 13L21 13ZM15.7491 11.4855L15.7491 11.4855L15.7491 11.4855Z" fill="#F1F1F1" fill-opacity="0.8" stroke="#F1F1F1" stroke-width="2"/>
</svg>
